<svg xmlns="http://www.w3.org/2000/svg" viewBox="0 0 400 160"><style>.st0{fill:#fff}</style><g><path d="M121.5 82c8.2-2.7 14.1-10.5 14.1-19.6 0-11.4-9.2-20.6-20.6-20.6-3.6 0-7 .9-10 2.6v-.1c-8.9 3.5-15-4.2-13.5-12.7.6-2.1 1-4.3 1-6.6 0-12.6-10.2-22.8-22.8-22.8S46.9 12.4 46.9 25s10.2 22.8 22.8 22.8c3.7 0 7.2-.9 10.3-2.5 8.3-3 16.5 3.4 14.7 12.5l.1-.1c-.4 1.5-.5 3.1-.5 4.7 0 7.7 4.2 14.4 10.4 17.9 6.8 4.9 6.3 16.2-1.9 19.4h.1c-6.9 2.7-11.8 9.4-11.8 17.3v.9c.1 9.4-6.4 14.5-15.6 9.9-2.3-1.3-5-2.1-7.9-2.1-4.2 0-7.9 1.6-10.8 4.2-6.1 4.8-14.7 4-15-5.2v.1c-.8-6.8-6.6-12.2-13.6-12.3-5.6-.4-7.8-6.7-3.8-10.9h-.1c2.9-2.4 4.8-6.1 4.8-10.1 0-3.1-1.1-6-2.9-8.3-2.8-4.2.9-10 6.2-9.5.7.1 1.5.2 2.3.2 6.6 0 12-5.4 12-12s-5.4-12-12-12-12 5.4-12 12c0 2.5.8 4.9 2.1 6.8h-.1c3.4 5.3-1.5 10.4-6.3 9.8h.1c-.8-.2-1.6-.2-2.5-.2-7.3 0-13.2 5.9-13.2 13.2 0 7.1 5.5 12.8 12.5 13.2 6.9.7 6.9 7.8 3.1 11.6-2.8 2.6-4.5 6.2-4.5 10.3 0 7.7 6.3 14 14 14 3.8 0 7.2-1.5 9.7-3.9 6-6.1 13.3-.5 14.3 7.2l.1-.2c1.1 7.7 7.6 13.6 15.6 13.6 8.7 0 15.8-7.1 15.8-15.8v-.4c.7-9.7 7.7-13 15.9-8.7 2.9 1.9 6.5 3.1 10.2 3.1 10.2 0 18.5-8.3 18.5-18.5 0-6.6-3.4-12.3-8.6-15.6-6.1-4.3-5.8-15.4 2.1-19.4z" class="st0"/><g><path d="M192.9 115.6h-7.4l-6-35.8h-.2l-6 35.8h-7.4l-8.2-55.1h8.4l3.9 35h.2l6.2-35h6l6.4 35.9h.2l3.8-35.9h8.4l-8.3 55.1z" class="st0"/><path d="M204.7 73.5c0-2.2.4-4.2 1.2-5.9.8-1.7 1.8-3.1 3.1-4.2s2.7-1.9 4.3-2.5c1.6-.6 3.2-.9 4.8-.9 1.6 0 3.2.3 4.8.9 1.6.6 3 1.4 4.3 2.5 1.3 1.1 2.3 2.5 3.1 4.2.8 1.7 1.2 3.7 1.2 5.9v29.1c0 2.3-.4 4.2-1.2 5.9-.8 1.7-1.8 3.1-3.1 4.2s-2.7 1.9-4.3 2.5c-1.6.6-3.2.9-4.8.9-1.6 0-3.2-.3-4.8-.9-1.6-.6-3-1.4-4.3-2.5-1.3-1.1-2.3-2.5-3.1-4.2-.8-1.7-1.2-3.7-1.2-5.9V73.5zm7.9 29.1c0 1.9.5 3.3 1.6 4.2 1.1.9 2.3 1.4 3.8 1.4 1.4 0 2.7-.5 3.8-1.4 1.1-.9 1.6-2.3 1.6-4.2V73.5c0-1.9-.5-3.3-1.6-4.2-1.1-.9-2.3-1.4-3.8-1.4-1.4 0-2.7.5-3.8 1.4-1.1.9-1.6 2.3-1.6 4.2v29.1z" class="st0"/><path d="M237.7 73.5c0-2.2.4-4.2 1.2-5.9.8-1.7 1.8-3.1 3.1-4.2s2.7-1.9 4.3-2.5c1.6-.6 3.2-.9 4.8-.9 1.6 0 3.2.3 4.8.9 1.6.6 3 1.4 4.3 2.5 1.3 1.1 2.3 2.5 3.1 4.2.8 1.7 1.2 3.7 1.2 5.9v29.1c0 2.3-.4 4.2-1.2 5.9-.8 1.7-1.8 3.1-3.1 4.2s-2.7 1.9-4.3 2.5c-1.6.6-3.2.9-4.8.9-1.6 0-3.2-.3-4.8-.9-1.6-.6-3-1.4-4.3-2.5-1.3-1.1-2.3-2.5-3.1-4.2-.8-1.7-1.2-3.7-1.2-5.9V73.5zm7.9 29.1c0 1.9.5 3.3 1.6 4.2 1.1.9 2.3 1.4 3.8 1.4 1.4 0 2.7-.5 3.8-1.4 1.1-.9 1.6-2.3 1.6-4.2V73.5c0-1.9-.5-3.3-1.6-4.2-1.1-.9-2.3-1.4-3.8-1.4-1.4 0-2.7.5-3.8 1.4-1.1.9-1.6 2.3-1.6 4.2v29.1z" class="st0"/><path d="M271.1 60.4h7.9v25.2h.2l11.5-25.2h7.9l-10.8 22.1 12.8 33.1h-8.4l-9-24.5-4.3 8v16.5H271V60.4z" class="st0"/><path d="M302.7 73.5c0-2.2.4-4.2 1.2-5.9.8-1.7 1.8-3.1 3.1-4.2s2.7-1.9 4.3-2.5c1.6-.6 3.2-.9 4.8-.9 1.6 0 3.2.3 4.8.9 1.6.6 3 1.4 4.3 2.5 1.3 1.1 2.3 2.5 3.1 4.2.8 1.7 1.2 3.7 1.2 5.9v29.1c0 2.3-.4 4.2-1.2 5.9-.8 1.7-1.8 3.1-3.1 4.2s-2.7 1.9-4.3 2.5c-1.6.6-3.2.9-4.8.9-1.6 0-3.2-.3-4.8-.9-1.6-.6-3-1.4-4.3-2.5-1.3-1.1-2.3-2.5-3.1-4.2-.8-1.7-1.2-3.7-1.2-5.9V73.5zm7.9 29.1c0 1.9.5 3.3 1.6 4.2 1.1.9 2.3 1.4 3.8 1.4 1.4 0 2.7-.5 3.8-1.4 1.1-.9 1.6-2.3 1.6-4.2V73.5c0-1.9-.5-3.3-1.6-4.2-1.1-.9-2.3-1.4-3.8-1.4-1.4 0-2.7.5-3.8 1.4-1.1.9-1.6 2.3-1.6 4.2v29.1z" class="st0"/><path d="M335.9 60.4h7.6l11.9 33.2h.2V60.4h7.9v55.1H356l-12.1-33.1h-.2v33.1h-7.9V60.4z" class="st0"/><path d="M370.1 73.5c0-2.2.4-4.2 1.2-5.9.8-1.7 1.8-3.1 3.1-4.2s2.7-1.9 4.3-2.5c1.6-.6 3.2-.9 4.8-.9 1.6 0 3.2.3 4.8.9 1.6.6 3 1.4 4.3 2.5 1.3 1.1 2.3 2.5 3.1 4.2.8 1.7 1.2 3.7 1.2 5.9v2.8H389v-2.8c0-1.9-.5-3.3-1.6-4.2-1.1-.9-2.3-1.4-3.8-1.4-1.4 0-2.7.5-3.8 1.4-1.1.9-1.6 2.3-1.6 4.2v29.1c0 1.9.5 3.3 1.6 4.2 1.1.9 2.3 1.4 3.8 1.4 1.4 0 2.7-.5 3.8-1.4 1.1-.9 1.6-2.3 1.6-4.2V92.2h-6.3v-7h14.2v17.3c0 2.3-.4 4.2-1.2 5.9-.8 1.7-1.8 3.1-3.1 4.2s-2.7 1.9-4.3 2.5c-1.6.6-3.2.9-4.8.9-1.6 0-3.2-.3-4.8-.9-1.6-.6-3-1.4-4.3-2.5-1.3-1.1-2.3-2.5-3.1-4.2-.8-1.7-1.2-3.7-1.2-5.9v-29z" class="st0"/></g></g></svg>
