<svg xmlns="http://www.w3.org/2000/svg" viewBox="0 0 400 160"><style>.st0{fill:#fff}</style><g><path d="M121.5 82c8.2-2.7 14.1-10.5 14.1-19.6 0-11.4-9.2-20.6-20.6-20.6-3.6 0-7 .9-10 2.6v-.1c-8.9 3.5-15-4.2-13.5-12.7.6-2.1 1-4.3 1-6.6 0-12.6-10.2-22.8-22.8-22.8S46.9 12.4 46.9 25s10.2 22.8 22.8 22.8c3.7 0 7.2-.9 10.3-2.5 8.3-3 16.5 3.4 14.7 12.5l.1-.1c-.4 1.5-.5 3.1-.5 4.7 0 7.7 4.2 14.4 10.4 17.9 6.8 4.9 6.3 16.2-1.9 19.4h.1c-6.9 2.7-11.8 9.4-11.8 17.3v.9c.1 9.4-6.4 14.5-15.6 9.9-2.3-1.3-5-2.1-7.9-2.1-4.2 0-7.9 1.6-10.8 4.2-6.1 4.8-14.7 4-15-5.2v.1c-.8-6.8-6.6-12.2-13.6-12.3-5.6-.4-7.8-6.7-3.8-10.9h-.1c2.9-2.4 4.8-6.1 4.8-10.1 0-3.1-1.1-6-2.9-8.3-2.8-4.2.9-10 6.2-9.5.7.1 1.5.2 2.3.2 6.6 0 12-5.4 12-12s-5.4-12-12-12-12 5.4-12 12c0 2.5.8 4.9 2.1 6.8h-.1c3.4 5.3-1.5 10.4-6.3 9.8h.1c-.8-.2-1.6-.2-2.5-.2-7.3 0-13.2 5.9-13.2 13.2 0 7.1 5.5 12.8 12.5 13.2 6.9.7 6.9 7.8 3.1 11.6-2.8 2.6-4.5 6.2-4.5 10.3 0 7.7 6.3 14 14 14 3.8 0 7.2-1.5 9.7-3.9 6-6.1 13.3-.5 14.3 7.2l.1-.2c1.1 7.7 7.6 13.6 15.6 13.6 8.7 0 15.8-7.1 15.8-15.8v-.4c.7-9.7 7.7-13 15.9-8.7 2.9 1.9 6.5 3.1 10.2 3.1 10.2 0 18.5-8.3 18.5-18.5 0-6.6-3.4-12.3-8.6-15.6-6.1-4.3-5.8-15.4 2.1-19.4z" class="st0"/></g></svg>
